<?xml version="1.0" encoding="utf-8"?>
<!-- Generator: Adobe Illustrator 25.3.1, SVG Export Plug-In . SVG Version: 6.00 Build 0)  -->
<svg version="1.1" xmlns="http://www.w3.org/2000/svg" xmlns:xlink="http://www.w3.org/1999/xlink" x="0px" y="0px"
	 viewBox="0 0 2160 2160" style="enable-background:new 0 0 2160 2160;" xml:space="preserve">
<style type="text/css">
	.st0{fill:#B9E5EF;}
	.st1{fill:#88C0D0;}
	.st2{fill:#7FB2C2;}
</style>
<g id="Layer_1">
</g>
<g id="Layer_2">
	<g>
		<path class="st0" d="M1765.41,872.27l-24.85-156.48l-45.1-303.54c-8.17-54.98-76.29-80.99-122.62-46.82l-204.45,150.79
			c-19.79,14.59-44.17,22.52-69.27,22.52h-219.11H860.28c-25.12,0-49.52-7.93-69.32-22.53L586.53,365.43
			c-46.33-34.17-114.45-8.16-122.62,46.82l-54.56,367.27l-14.76,92.96c-25.66,161.58,27.79,325.42,145.3,445.34l442.92,452
			c52.43,53.5,141.99,53.5,194.42,0L1620,1317.96C1737.6,1197.95,1791.1,1033.97,1765.41,872.27z"/>
		<path class="st1" d="M1047.03,1612.86l-78.79-128.88c-12.07-19.74,2.14-45.08,25.28-45.08h172.95c23.14,0,37.35,25.34,25.28,45.08
			l-78.79,128.88C1097.9,1637.51,1062.1,1637.51,1047.03,1612.86z"/>
		<path class="st1" d="M409.35,778.09l-14.76,92.96c-25.66,161.58,27.79,325.42,145.3,445.34l140.56,143.45
			C680.45,1459.83,1411.07,805.19,409.35,778.09z"/>
		<path class="st2" d="M934.01,998.23c-20.57-105.44-133.84-193.35-432.09-215.67C501.92,782.56,572.97,1169.08,934.01,998.23z"/>
		<path class="st1" d="M1750.65,778.09l14.76,92.96c25.66,161.58-27.79,325.42-145.3,445.34l-140.56,143.45
			C1479.55,1459.83,748.93,805.19,1750.65,778.09z"/>
		<path class="st2" d="M1226.08,998.23c20.57-105.44,133.84-193.35,432.09-215.67C1658.17,782.56,1587.12,1169.08,1226.08,998.23z"
			/>
	</g>
</g>
</svg>
